<?xml version="1.0" standalone="no"?>
<!DOCTYPE svg PUBLIC "-//W3C//DTD SVG 20010904//EN"
 "http://www.w3.org/TR/2001/REC-SVG-20010904/DTD/svg10.dtd">
<svg version="1.0" xmlns="http://www.w3.org/2000/svg"
 width="643.000000pt" height="153.000000pt" viewBox="0 0 643.000000 153.000000"
 preserveAspectRatio="xMidYMid meet">

<g transform="translate(0.000000,153.000000) scale(0.100000,-0.100000)"
fill="#000000" stroke="none">
<path d="M873 994 c-53 -19 -123 -81 -160 -142 -26 -43 -28 -55 -28 -147 0
-79 4 -108 19 -139 21 -42 73 -99 120 -133 l30 -20 -38 -46 c-38 -47 -44 -79
-14 -85 10 -2 33 19 61 55 l44 58 79 -1 78 -1 36 -54 c23 -35 43 -54 55 -54
31 0 30 34 -4 75 -17 22 -31 43 -31 49 0 5 15 19 34 31 46 28 95 84 117 135
73 165 -12 360 -182 420 -52 19 -161 18 -216 -1z m179 -64 c21 -6 56 -25 79
-43 126 -96 117 -305 -16 -387 -43 -26 -50 -25 -75 10 -26 37 -19 70 14 70 30
0 69 40 100 102 l25 51 -23 18 c-13 11 -29 19 -34 19 -16 0 -102 -91 -113
-118 -5 -13 -6 -28 -3 -33 3 -6 3 -17 0 -26 -5 -12 -9 -13 -20 -4 -11 9 -13
26 -9 64 5 51 4 54 -33 90 -81 79 -157 52 -134 -47 12 -56 41 -89 86 -101 50
-13 64 -22 64 -43 -1 -23 -45 -72 -65 -72 -8 0 -40 24 -69 53 -63 60 -81 111
-73 195 15 147 155 241 299 202z m-50 -462 c-6 -6 -18 -8 -28 -4 -16 6 -15 8
2 27 16 18 19 18 27 3 6 -10 5 -20 -1 -26z"/>
<path d="M1355 801 c-3 -5 4 -12 15 -16 19 -6 20 -15 20 -131 0 -102 -3 -126
-15 -130 -8 -4 -15 -12 -15 -20 0 -11 17 -14 74 -14 77 0 102 11 67 29 -14 8
-20 24 -23 61 -2 31 1 50 8 50 6 0 28 -26 49 -57 50 -74 61 -83 106 -83 37 0
65 20 40 28 -14 5 -101 119 -101 133 0 5 6 9 13 9 22 0 47 34 47 62 0 71 -34
88 -174 88 -58 0 -107 -4 -111 -9z m193 -33 c7 -7 12 -26 12 -43 0 -38 -16
-55 -52 -55 -27 0 -28 1 -28 55 0 54 1 55 28 55 15 0 33 -5 40 -12z"/>
<path d="M2342 798 c-25 -25 -6 -68 30 -68 9 0 22 9 28 20 22 40 -26 80 -58
48z"/>
<path d="M3236 802 c-3 -6 1 -12 9 -16 10 -3 15 -19 15 -45 0 -39 -1 -40 -29
-35 -35 7 -85 -19 -100 -53 -25 -55 -8 -119 40 -147 18 -10 37 -15 47 -11 9 4
43 8 75 10 63 2 75 8 59 28 -7 8 -13 67 -14 143 l-3 129 -47 3 c-25 2 -49 -1
-52 -6z m13 -136 c7 -8 11 -37 9 -68 -3 -49 -5 -53 -28 -53 -20 0 -26 6 -31
35 -7 31 -3 72 8 93 7 12 30 8 42 -7z"/>
<path d="M3720 763 c1 -44 2 -47 15 -29 8 11 15 23 15 27 0 10 57 29 64 22 8
-8 8 -227 0 -247 -3 -9 -13 -16 -21 -16 -8 0 -13 -6 -10 -12 5 -17 149 -18
154 -2 2 6 -5 14 -17 17 -19 5 -20 13 -20 131 l0 126 24 0 c24 0 56 -23 56
-41 0 -5 5 -9 10 -9 6 0 10 18 10 40 l0 40 -140 0 -140 0 0 -47z"/>
<path d="M4050 796 c-6 -8 -10 -25 -8 -38 2 -18 9 -23 33 -23 24 0 31 5 33 23
4 25 -13 52 -33 52 -7 0 -18 -7 -25 -14z"/>
<path d="M4550 800 c0 -5 9 -14 20 -20 19 -10 20 -19 18 -133 -3 -108 -5 -122
-21 -125 -16 -3 -17 1 -12 31 6 30 4 37 -16 47 -20 11 -25 10 -40 -9 -24 -29
-12 -61 33 -85 39 -22 70 -18 111 15 26 20 27 23 27 135 0 112 1 115 25 126
13 6 22 15 19 19 -7 12 -164 11 -164 -1z"/>
<path d="M2478 728 c-38 -42 -46 -58 -28 -58 6 0 10 -29 10 -67 0 -38 4 -73 8
-79 15 -23 50 -34 75 -25 32 12 44 41 17 41 -18 0 -20 7 -20 64 0 59 2 65 23
68 12 2 22 10 22 18 0 8 -10 16 -22 18 -18 3 -23 10 -23 33 0 40 -17 36 -62
-13z"/>
<path d="M1748 694 c-36 -19 -48 -43 -48 -94 0 -52 13 -76 51 -96 34 -17 73
-12 102 13 26 24 21 29 -20 25 -27 -3 -40 0 -50 14 -25 34 -16 44 40 44 30 0
56 3 60 6 10 11 -15 64 -40 84 -30 24 -58 25 -95 4z m66 -30 c12 -31 6 -44
-19 -44 -20 0 -25 5 -25 23 0 38 32 53 44 21z"/>
<path d="M1952 694 c-57 -39 -68 -119 -23 -164 39 -40 73 -47 113 -23 44 25
42 37 -7 37 -38 1 -41 3 -54 42 -23 66 8 131 34 72 14 -31 59 -32 63 -1 7 45
-79 70 -126 37z"/>
<path d="M2163 700 c-13 -5 -32 -24 -43 -42 -56 -89 35 -202 122 -151 46 27
48 43 4 36 -40 -6 -66 9 -66 38 0 16 8 19 55 19 52 0 55 1 55 26 0 33 -51 84
-82 83 -13 0 -33 -4 -45 -9z m59 -37 c8 -29 -2 -43 -28 -43 -26 0 -30 11 -14
41 13 24 36 25 42 2z"/>
<path d="M2310 695 c0 -8 5 -15 10 -15 14 0 13 -143 -1 -157 -20 -20 1 -33 51
-33 50 0 71 13 51 33 -6 6 -11 43 -11 83 0 40 -3 79 -6 88 -8 22 -94 23 -94 1z"/>
<path d="M2629 680 c-25 -25 -28 -33 -19 -50 6 -11 18 -20 27 -20 12 0 9 -6
-11 -25 -31 -29 -33 -55 -6 -80 19 -17 23 -17 53 -3 29 14 35 14 55 0 19 -12
27 -13 47 -2 19 10 22 17 15 31 -6 10 -10 45 -10 78 0 52 -3 62 -26 80 -40 31
-89 28 -125 -9z m75 -15 c7 -20 -3 -45 -19 -45 -6 0 -12 13 -13 30 -1 32 21
42 32 15z m6 -88 c0 -24 -19 -42 -31 -30 -8 8 -8 16 1 32 11 22 30 20 30 -2z"/>
<path d="M2852 694 c-15 -10 -22 -25 -22 -48 0 -27 7 -38 46 -65 25 -18 43
-38 41 -44 -7 -21 -27 -18 -50 7 -32 34 -39 33 -35 -6 2 -21 9 -33 18 -34 8 0
27 -4 43 -8 32 -10 73 13 86 47 12 29 -12 69 -55 92 -18 9 -35 24 -38 31 -9
24 26 16 56 -13 l28 -27 0 36 c0 33 -2 36 -37 42 -53 8 -56 8 -81 -10z"/>
<path d="M3423 690 c-38 -23 -43 -52 -13 -73 18 -13 19 -15 5 -27 -59 -49 -24
-115 46 -86 28 12 35 12 47 0 17 -18 33 -18 56 -1 15 11 16 17 7 35 -6 11 -11
48 -11 81 0 51 -3 62 -22 75 -31 22 -76 20 -115 -4z m62 -40 c0 -38 -30 -38
-31 0 -1 23 3 30 15 28 10 -2 16 -13 16 -28z m5 -86 c0 -15 -6 -24 -15 -24
-16 0 -19 17 -9 44 9 22 24 10 24 -20z"/>
<path d="M4020 696 c0 -8 5 -18 10 -21 6 -3 10 -37 10 -75 0 -38 -4 -72 -10
-75 -5 -3 -10 -13 -10 -21 0 -10 14 -14 54 -14 58 0 75 10 51 30 -11 9 -15 35
-15 101 l0 89 -45 0 c-33 0 -45 -4 -45 -14z"/>
<path d="M4193 690 c-37 -22 -43 -54 -14 -72 19 -12 19 -13 -5 -41 -29 -35
-30 -41 -3 -68 20 -20 51 -19 73 1 5 5 20 2 33 -7 19 -13 29 -14 48 -5 25 12
33 36 15 47 -5 3 -10 35 -10 70 0 55 -3 66 -22 79 -31 22 -76 20 -115 -4z m65
-37 c-4 -40 -33 -42 -34 -3 -1 23 3 30 18 30 15 0 19 -6 16 -27z m2 -83 c0
-20 -5 -30 -15 -30 -18 0 -20 31 -3 48 17 17 18 16 18 -18z"/>
<path d="M4730 696 c0 -8 4 -18 10 -21 5 -3 9 -32 9 -64 -1 -77 6 -96 40 -111
23 -9 34 -9 51 0 16 9 25 9 33 1 14 -14 74 -14 82 -1 4 6 2 17 -4 23 -5 7 -11
51 -13 97 l-3 85 -40 3 -41 3 1 -83 c0 -67 -3 -83 -15 -83 -12 0 -16 18 -20
80 l-5 80 -42 3 c-33 2 -43 0 -43 -12z"/>
<path d="M4995 701 c-3 -5 -1 -12 5 -16 14 -8 13 -148 -1 -162 -20 -20 1 -33
51 -33 45 0 79 19 52 28 -16 5 -16 128 0 138 6 4 17 -1 24 -11 9 -11 21 -16
35 -12 17 5 20 2 16 -14 -3 -11 -1 -35 4 -55 19 -66 101 -92 151 -47 27 25 22
32 -18 26 -29 -5 -40 -2 -50 12 -26 35 -17 45 40 45 30 0 57 4 60 8 9 15 -28
76 -55 91 -32 18 -72 9 -105 -24 -20 -20 -24 -21 -24 -7 0 39 -45 55 -74 26
-15 -14 -17 -14 -22 0 -7 18 -79 23 -89 7z m299 -37 c12 -31 6 -44 -19 -44
-25 0 -31 13 -19 44 3 9 12 16 19 16 7 0 16 -7 19 -16z"/>
<path d="M5395 701 c-3 -5 -1 -12 5 -16 14 -8 13 -148 -1 -162 -20 -20 1 -33
51 -33 47 0 71 12 50 25 -5 3 -10 37 -10 75 0 54 3 69 17 74 9 4 20 1 25 -6
12 -19 10 -122 -3 -135 -19 -19 0 -33 46 -33 46 0 65 14 46 33 -17 17 -14 113
5 131 27 28 36 7 33 -78 l-4 -81 46 -3 45 -3 -4 88 c-3 71 -8 92 -25 111 -24
26 -54 28 -84 7 -19 -13 -24 -13 -52 2 -25 15 -35 16 -60 6 -18 -6 -33 -7 -37
-2 -7 12 -81 12 -89 0z"/>
<path d="M5818 695 c-46 -25 -45 -84 1 -85 11 -1 8 -7 -11 -21 -19 -14 -28
-30 -28 -49 0 -41 29 -55 74 -36 30 12 36 12 49 -2 14 -13 21 -13 43 -3 20 9
25 16 20 34 -3 12 -6 46 -6 75 0 43 -5 58 -25 77 -28 29 -75 32 -117 10z m60
-42 c-4 -37 -25 -40 -30 -3 -4 24 -1 30 14 30 15 0 19 -6 16 -27z m2 -83 c0
-20 -5 -30 -15 -30 -18 0 -20 31 -3 48 17 17 18 16 18 -18z"/>
</g>
</svg>
